<svg width="432" height="134" viewBox="0 0 432 134" fill="none" xmlns="http://www.w3.org/2000/svg">
<path d="M163.513 73.9161C160.067 73.9161 156.88 73.326 153.953 72.1458C151.026 70.9185 148.477 69.2426 146.306 67.1183C144.134 64.9467 142.435 62.3976 141.207 59.4707C140.027 56.5439 139.437 53.3338 139.437 49.8404C139.437 46.3471 140.027 43.137 141.207 40.2102C142.435 37.2833 144.134 34.7577 146.306 32.6334C148.477 30.4619 151.026 28.786 153.953 27.6058C156.88 26.3784 160.067 25.7647 163.513 25.7647C167.006 25.7647 170.216 26.3784 173.143 27.6058C176.07 28.786 178.619 30.4619 180.791 32.6334C182.962 34.7577 184.638 37.2833 185.818 40.2102C187.046 43.137 187.659 46.3471 187.659 49.8404C187.659 53.3338 187.046 56.5439 185.818 59.4707C184.638 62.3976 182.962 64.9467 180.791 67.1183C178.619 69.2426 176.07 70.9185 173.143 72.1458C170.216 73.326 167.006 73.9161 163.513 73.9161ZM164.787 70.3048C167.431 70.3048 169.744 69.5494 171.727 68.0388C173.757 66.5282 175.338 64.4039 176.471 61.6658C177.604 58.9278 178.171 55.6941 178.171 51.9648C178.171 47.3857 177.463 43.3966 176.046 39.9977C174.677 36.5988 172.789 33.9788 170.381 32.1377C168.021 30.2494 165.377 29.3053 162.451 29.3053C159.854 29.3053 157.517 30.0606 155.44 31.5712C153.41 33.0347 151.805 35.1354 150.625 37.8734C149.445 40.6114 148.855 43.8451 148.855 47.5745C148.855 52.1536 149.563 56.1426 150.979 59.5415C152.395 62.9404 154.307 65.584 156.715 67.4723C159.17 69.3606 161.861 70.3048 164.787 70.3048ZM193.459 73.208V72.075L198.132 69.8091V28.1723L193.671 24.7026V23.9945L205.638 20.0999H206.275V69.8091L210.595 72.075V73.208H193.459ZM227.198 73.9161C224.932 73.9161 222.879 73.326 221.038 72.1458C219.244 70.9657 217.804 69.2898 216.718 67.1183C215.633 64.9467 215.09 62.3976 215.09 59.4707C215.09 55.5053 215.821 52.1064 217.285 49.2739C218.795 46.3943 220.825 44.1992 223.375 42.6885C225.924 41.1307 228.78 40.3518 231.943 40.3518C234.256 40.3518 236.238 40.5642 237.891 40.9891V28.1723L233.146 24.6318V23.9945L245.397 20.0999H246.034V70.0215L251.062 72.075V73.208H238.599L238.032 69.6675H237.537C235.743 71.1781 234.043 72.2639 232.438 72.9248C230.833 73.5857 229.087 73.9161 227.198 73.9161ZM223.304 57.488C223.304 61.2646 224.201 64.0498 225.995 65.8437C227.788 67.5903 229.865 68.4637 232.226 68.4637C234.114 68.4637 236.002 67.8972 237.891 66.7642V46.5831C237.041 45.7806 236.144 45.1669 235.2 44.7421C234.303 44.27 233.288 44.0339 232.155 44.0339C230.55 44.0339 229.087 44.4588 227.765 45.3085C226.443 46.1111 225.357 47.5037 224.507 49.4864C223.705 51.4219 223.304 54.0891 223.304 57.488ZM255.823 73.208V72.075L261.7 69.1718L263.187 30.5091L257.027 27.6058V26.4729H272.747L287.83 61.4534L302.841 26.4729H317.924V27.6058L311.905 30.0134L313.109 69.1718L318.278 72.075V73.208H298.947V72.075L304.47 69.2426L303.762 35.1118L287.334 73.5621H283.652L267.224 35.4658L266.303 69.2426L272.322 72.075V73.208H255.823ZM331.907 73.9161C329.641 73.9161 327.706 73.2316 326.101 71.8626C324.543 70.4936 323.787 68.5581 323.835 66.0561C323.882 63.6013 324.708 61.595 326.313 60.0372C327.918 58.4321 330.892 57.1103 335.235 56.0718L341.891 54.4431V49.7696C341.891 48.023 341.301 46.6067 340.121 45.521C338.941 44.388 337.525 43.8215 335.872 43.8215C334.22 43.8215 333.064 44.2228 332.403 45.0253C331.742 45.7806 331.411 46.89 331.411 48.3534V51.115L331.057 51.3983H326.809C326.101 51.3983 325.605 51.2566 325.322 50.9734C325.038 50.6902 324.897 50.1237 324.897 49.2739C324.897 47.0552 326.313 45.0961 329.145 43.3966C330.656 42.4525 332.143 41.7208 333.607 41.2015C335.117 40.635 336.699 40.3518 338.351 40.3518C340.428 40.3518 342.363 40.635 344.157 41.2015C345.951 41.768 347.391 42.6649 348.477 43.8923C349.563 45.1197 350.105 46.772 350.105 48.8491V68.1804C350.766 68.9358 351.97 69.3134 353.717 69.3134H356.054L356.266 69.5258V70.234C355.699 71.1781 354.826 72.0278 353.646 72.7831C352.466 73.5385 350.955 73.9161 349.114 73.9161C347.32 73.9161 345.857 73.5149 344.724 72.7123C343.638 71.8626 342.859 70.7296 342.387 69.3134H341.891C340.664 70.6352 339.201 71.7446 337.501 72.6415C335.802 73.4913 333.937 73.9161 331.907 73.9161ZM331.624 64.2858C331.624 65.7965 332.049 66.9294 332.898 67.6848C333.795 68.3929 335.023 68.7469 336.581 68.7469C337.477 68.7469 338.327 68.6525 339.13 68.4637C339.979 68.2749 340.9 67.968 341.891 67.5431V57.1339C338.965 57.7004 336.769 58.3377 335.306 59.0458C333.843 59.7067 332.851 60.4621 332.332 61.3118C331.86 62.1615 331.624 63.1529 331.624 64.2858ZM358.738 89.4945V88.3615L363.34 86.0956V48.7075L358.95 45.2377V44.5296L370.138 40.3518H370.846L371.413 44.6712H371.838C373.584 43.1606 375.284 42.0748 376.936 41.4139C378.588 40.7058 380.359 40.3518 382.247 40.3518C384.466 40.3518 386.472 40.9891 388.266 42.2637C390.107 43.4911 391.57 45.2613 392.656 47.5745C393.742 49.8404 394.285 52.5548 394.285 55.7177C394.285 59.5415 393.529 62.8224 392.019 65.5604C390.555 68.2512 388.573 70.3284 386.071 71.7918C383.616 73.208 380.925 73.9161 377.998 73.9161C375.543 73.9161 373.396 73.6801 371.554 73.208V86.0956L376.865 88.3615V89.4945H358.738ZM377.219 45.8042C375.425 45.8042 373.537 46.3707 371.554 47.5037V67.7556C373.396 69.5022 375.732 70.3756 378.565 70.3756C379.887 70.3756 381.114 69.9979 382.247 69.2426C383.38 68.4873 384.3 67.2127 385.009 65.4188C385.764 63.5777 386.142 61.0758 386.142 57.9129C386.142 53.7586 385.245 50.7138 383.451 48.7783C381.657 46.7956 379.58 45.8042 377.219 45.8042ZM411.356 73.9161C409.043 73.9161 407.06 73.7037 405.408 73.2788C403.755 72.854 402.103 72.2403 400.451 71.4377V63.2945H401.442L403.85 67.1183C405.502 69.7147 407.91 71.0129 411.072 71.0129C412.914 71.0129 414.33 70.6352 415.321 69.8799C416.312 69.0774 416.808 67.9916 416.808 66.6226C416.808 65.4424 416.525 64.5219 415.958 63.861C415.392 63.1529 414.495 62.5156 413.268 61.9491C412.087 61.3826 410.577 60.6981 408.736 59.8956C406.187 58.8098 404.275 57.5824 403 56.2134C401.725 54.7972 401.088 52.9797 401.088 50.761C401.088 48.8255 401.584 47.0788 402.575 45.521C403.614 43.9159 404.983 42.6649 406.682 41.768C408.429 40.8239 410.317 40.3518 412.347 40.3518C413.999 40.3518 415.581 40.5406 417.091 40.9183C418.602 41.2959 420.113 41.8624 421.623 42.6177V50.761H420.561L418.295 47.2912C416.643 44.6948 414.66 43.3966 412.347 43.3966C410.884 43.3966 409.68 43.7743 408.736 44.5296C407.839 45.2377 407.39 46.2763 407.39 47.6453C407.39 49.0143 407.886 50.1001 408.877 50.9026C409.916 51.7051 411.757 52.6493 414.401 53.735C415.722 54.3487 417.044 54.986 418.366 55.6469C419.688 56.3078 420.774 57.252 421.623 58.4794C422.52 59.7067 422.969 61.4298 422.969 63.6485C422.969 65.8201 422.379 67.6848 421.198 69.2426C420.065 70.7532 418.602 71.9098 416.808 72.7123C415.014 73.5149 413.197 73.9161 411.356 73.9161Z" fill="#3E2B13"/>
<path d="M158.841 126.799C155.966 126.799 153.308 126.306 150.866 125.322C148.424 124.298 146.298 122.9 144.486 121.128C142.675 119.316 141.257 117.19 140.233 114.748C139.249 112.306 138.756 109.629 138.756 106.714C138.756 103.8 139.249 101.122 140.233 98.6806C141.257 96.2389 142.675 94.132 144.486 92.3599C146.298 90.5483 148.424 89.1503 150.866 88.1658C153.308 87.1419 155.966 86.6299 158.841 86.6299C161.755 86.6299 164.433 87.1419 166.874 88.1658C169.316 89.1503 171.443 90.5483 173.254 92.3599C175.066 94.132 176.464 96.2389 177.448 98.6806C178.472 101.122 178.984 103.8 178.984 106.714C178.984 109.629 178.472 112.306 177.448 114.748C176.464 117.19 175.066 119.316 173.254 121.128C171.443 122.9 169.316 124.298 166.874 125.322C164.433 126.306 161.755 126.799 158.841 126.799ZM159.904 123.786C162.109 123.786 164.039 123.156 165.693 121.896C167.386 120.636 168.706 118.863 169.651 116.579C170.596 114.295 171.069 111.598 171.069 108.486C171.069 104.667 170.478 101.339 169.296 98.5033C168.154 95.6679 166.579 93.4822 164.571 91.9464C162.602 90.3711 160.396 89.5835 157.955 89.5835C155.789 89.5835 153.839 90.2136 152.106 91.4738C150.413 92.6946 149.074 94.4471 148.09 96.7312C147.105 99.0153 146.613 101.713 146.613 104.824C146.613 108.644 147.204 111.972 148.385 114.807C149.566 117.643 151.161 119.848 153.17 121.423C155.218 122.998 157.462 123.786 159.904 123.786ZM183.999 126.208V125.263L187.839 123.373V105.533L184.176 102.875V102.284L193.51 98.7987H194.1L194.632 103.17H194.927C196.385 101.752 197.783 100.669 199.122 99.9211C200.5 99.1728 202.055 98.7987 203.788 98.7987C206.151 98.7987 208.081 99.4091 209.577 100.63C211.113 101.851 211.881 103.623 211.881 105.946V123.373L215.721 125.263V126.208H201.544V125.263L205.029 123.373V108.486C205.029 106.99 204.576 105.848 203.67 105.06C202.764 104.233 201.583 103.82 200.126 103.82C199.22 103.82 198.255 103.977 197.231 104.292C196.207 104.607 195.361 105.041 194.691 105.592V123.373L198.176 125.263V126.208H183.999ZM218.824 126.208V125.263L222.723 123.373V88.6384L219.002 85.7438V85.1531L228.985 81.9042H229.516V123.373L233.12 125.263V126.208H218.824ZM244.253 92.478C243.111 92.478 242.166 92.1039 241.418 91.3557C240.67 90.568 240.296 89.6032 240.296 88.4611C240.296 87.3191 240.67 86.3739 241.418 85.6257C242.166 84.8775 243.111 84.5033 244.253 84.5033C245.395 84.5033 246.341 84.8775 247.089 85.6257C247.876 86.3739 248.27 87.3191 248.27 88.4611C248.27 89.6032 247.876 90.568 247.089 91.3557C246.341 92.1039 245.395 92.478 244.253 92.478ZM237.165 126.208V125.263L241.004 123.373V105.533L237.342 102.697V102.048L247.266 98.7987H247.857V123.373L251.46 125.263V126.208H237.165ZM255.548 126.208V125.263L259.387 123.373V105.533L255.725 102.875V102.284L265.058 98.7987H265.649L266.181 103.17H266.476C267.933 101.752 269.331 100.669 270.67 99.9211C272.048 99.1728 273.604 98.7987 275.337 98.7987C277.7 98.7987 279.629 99.4091 281.126 100.63C282.662 101.851 283.429 103.623 283.429 105.946V123.373L287.269 125.263V126.208H273.092V125.263L276.577 123.373V108.486C276.577 106.99 276.124 105.848 275.219 105.06C274.313 104.233 273.131 103.82 271.674 103.82C270.768 103.82 269.804 103.977 268.78 104.292C267.756 104.607 266.909 105.041 266.24 105.592V123.373L269.725 125.263V126.208H255.548ZM303.664 126.799C299.726 126.799 296.595 125.637 294.271 123.313C291.987 120.99 290.845 117.899 290.845 114.039C290.845 111.046 291.475 108.408 292.736 106.124C293.996 103.839 295.65 102.048 297.698 100.748C299.785 99.4485 302.089 98.7987 304.609 98.7987C307.76 98.7987 310.221 99.8817 311.993 102.048C313.765 104.214 314.671 107.266 314.71 111.204L314.474 111.499H297.461C297.461 113.271 297.776 114.906 298.406 116.402C299.037 117.859 300.06 119.041 301.478 119.946C302.896 120.813 304.767 121.246 307.09 121.246C308.193 121.246 309.374 121.088 310.634 120.773C311.895 120.458 313.214 119.927 314.592 119.178H314.769V120.005C313.824 121.935 312.387 123.55 310.457 124.849C308.527 126.149 306.263 126.799 303.664 126.799ZM303.428 101.457C301.852 101.457 300.553 102.107 299.529 103.406C298.505 104.706 297.855 106.517 297.579 108.841H308.98C308.626 106.124 307.976 104.214 307.031 103.111C306.086 102.008 304.885 101.457 303.428 101.457Z" fill="#E7903A"/>
<circle cx="67.6879" cy="69.9744" r="23.3868" transform="rotate(-0.12041 67.6879 69.9744)" fill="#BE501F"/>
<path fill-rule="evenodd" clip-rule="evenodd" d="M55.2146 50.1835C47.9586 54.769 43.5072 63.1933 44.427 72.314C45.7229 85.165 57.1913 94.5322 70.0423 93.2363C74.1053 92.8265 77.82 91.4 80.9596 89.2345L55.2146 50.1835Z" fill="#E7903A"/>
<path fill-rule="evenodd" clip-rule="evenodd" d="M31.3904 5.72571C27.5113 3.93935 22.2813 0.04863 22.2813 0.04863C22.2813 0.04863 23.8415 6.34285 23.9777 10.5877C24.1317 15.388 22.6426 23.115 22.6426 23.115C22.6426 23.115 33.0239 24.1281 37.8754 27.4388C40.6009 29.2987 43.1894 32.9812 44.546 35.1102L41.5728 37.0603C40.2434 35.048 36.6449 31.7232 34.1815 30.2604C31.8251 28.8391 30.3394 28.2683 28.0001 27.9171C24.3077 27.3715 20.9524 28.4278 18.4576 30.928C17.2459 32.1238 16.0649 34.6279 15.767 36.5223C14.9741 41.7068 16.7672 44.7061 22.7558 47.8862C23.9797 48.536 25.9055 49.3436 27.0392 49.6817L29.082 50.3199L28.2026 48.4558C26.5455 44.9697 27.1953 43.0892 28.6549 40.6188C29.6233 38.9646 32.1729 38.1571 34.164 37.9333C35.6827 37.7771 37.5237 38.1441 38.8492 38.8466L38.3029 39.205C36.8425 40.1628 36.4351 42.1232 37.393 43.5836L37.7444 44.1194C38.7022 45.5797 40.6626 45.9871 42.123 45.0293L43.9479 43.8323C43.9673 44.5096 43.9663 45.4959 43.8438 46.2468C43.7175 47.0217 43.3931 47.9678 43.0583 48.8064C42.7782 49.5079 43.5075 50.2126 44.1549 49.8235C44.6569 49.5217 45.1634 49.1883 45.5602 48.8635C46.2368 48.3098 46.988 47.4593 47.5179 46.8184C47.8657 46.3976 48.5374 46.4143 48.8723 46.8455C49.3924 47.515 50.1503 48.3977 50.8854 48.9162C51.9543 49.6701 53.7882 50.2276 54.8469 50.506C55.2887 50.6221 55.7193 50.3228 55.7663 49.8684C55.8757 48.809 56.0052 46.9709 55.7618 45.7178C55.5833 44.7989 55.1035 43.6758 54.735 42.9003C54.5105 42.4277 54.7694 41.8498 55.2727 41.7069C56.0786 41.4781 57.2027 41.119 58.0033 40.7022C58.481 40.4535 59.0188 40.0929 59.5109 39.7339C60.0939 39.3084 59.7928 38.4114 59.0737 38.3501C58.2031 38.276 57.2144 38.1584 56.4551 37.9751C55.6958 37.7918 54.7395 37.4397 54.0857 37.183L55.8267 36.0411C57.2871 35.0832 57.6945 33.1229 56.7366 31.6625L56.3852 31.1267C55.4274 29.6663 53.467 29.2589 52.0066 30.2168L51.3203 30.667C51.2041 29.1713 51.6009 27.3368 52.3492 26.0062C53.3478 24.2691 55.1042 22.2523 57.0072 22.0232C59.8547 21.6687 61.8384 21.8219 64.3756 24.7306L65.735 26.2799L65.9636 24.152C66.1051 22.9774 66.1316 20.8893 66.0232 19.5079C65.4923 12.7481 63.4558 9.90853 58.3846 8.57019C56.5283 8.08869 53.761 8.17427 52.1815 8.80922C48.8943 10.1013 46.5887 12.7581 45.6181 16.3621C45.0081 18.6476 44.9398 20.2377 45.3046 22.9653C45.6649 25.8074 47.2805 30.4323 48.5965 32.4534L45.8497 34.255C44.4324 32.1663 42.0771 28.3317 41.4515 25.0932C40.3387 19.3329 43.5309 9.41451 43.5309 9.41451C43.5309 9.41451 35.7844 7.74915 31.3904 5.72571Z" fill="#BE501F"/>
<path fill-rule="evenodd" clip-rule="evenodd" d="M22.3292 0.24727C22.593 1.34792 23.8555 6.78867 23.9774 10.5878C24.1314 15.3881 22.6423 23.1151 22.6423 23.1151C22.6423 23.1151 33.0236 24.1282 37.8751 27.4389C40.6006 29.2989 43.1891 32.9814 44.5457 35.1103L41.5725 37.0604C40.2431 35.0481 36.6446 31.7234 34.1812 30.2605C31.8248 28.8393 30.3391 28.2684 27.9998 27.9173C24.3074 27.3717 20.9521 28.4279 18.4573 30.9281C17.2456 32.1239 16.0646 34.628 15.7667 36.5224C14.9738 41.707 16.7669 44.7062 22.7555 47.8863C23.9794 48.5361 25.9052 49.3437 27.0389 49.6819L29.0817 50.32L28.2023 48.4559C26.5452 44.9699 27.195 43.0894 28.6546 40.6189C29.623 38.9647 32.1726 38.1573 34.1637 37.9334C35.6824 37.7772 37.5234 38.1442 38.8489 38.8468L38.3026 39.2051C36.8422 40.163 36.4348 42.1233 37.3927 43.5837L37.7441 44.1195C38.7019 45.5799 40.6623 45.9873 42.1227 45.0294L43.9476 43.8325C43.967 44.5097 43.966 45.4961 43.8435 46.2469C43.7172 47.0219 43.3928 47.968 43.058 48.8065C42.7779 49.5081 43.5072 50.2128 44.1546 49.8236C44.6566 49.5219 45.1631 49.1884 45.5599 48.8637C46.2365 48.3099 46.9877 47.4594 47.5176 46.8186C47.8654 46.3978 48.5371 46.4145 48.872 46.8456C49.3921 47.5151 50.15 48.3979 50.8851 48.9164C51.954 49.6703 53.7879 50.2277 54.8466 50.5061C55.0435 50.5579 55.2382 50.5271 55.3977 50.4369L22.3292 0.24727Z" fill="#E7903A"/>
<circle cx="12.4679" cy="109.632" r="4.30838" transform="rotate(54.2679 12.4679 109.632)" fill="#BE501F"/>
<circle cx="122.204" cy="29.3354" r="3.9697" transform="rotate(90 122.204 29.3354)" fill="#BE501F"/>
<circle cx="105.552" cy="126.795" r="4.30838" fill="#BE501F"/>
<path fill-rule="evenodd" clip-rule="evenodd" d="M79.1397 15.168C80.3181 15.4236 81.0662 16.5861 80.8105 17.7646L78.1173 30.1788C77.8617 31.3572 76.6991 32.1053 75.5207 31.8496C74.3423 31.594 73.5943 30.4314 73.8499 29.253L76.5431 16.8388C76.7988 15.6604 77.9613 14.9123 79.1397 15.168Z" fill="#928976"/>
<path fill-rule="evenodd" clip-rule="evenodd" d="M97.9124 23.0972C98.917 23.7641 99.1908 25.1191 98.524 26.1237L91.4986 36.7073C90.8317 37.7119 89.4767 37.9857 88.4721 37.3188C87.4675 36.652 87.1936 35.297 87.8605 34.2923L94.8859 23.7088C95.5527 22.7041 96.9078 22.4303 97.9124 23.0972Z" fill="#928976"/>
<path fill-rule="evenodd" clip-rule="evenodd" d="M112.427 36.1225C113.128 37.1031 112.902 38.4669 111.922 39.1687L101.319 46.7572C100.339 47.459 98.9747 47.233 98.2729 46.2525C97.5711 45.2719 97.7971 43.9081 98.7776 43.2063L109.38 35.6178C110.361 34.916 111.725 35.1419 112.427 36.1225Z" fill="#928976"/>
<path fill-rule="evenodd" clip-rule="evenodd" d="M121.933 55.7338C122.207 56.908 121.478 58.0823 120.304 58.3568L107.607 61.3244C106.433 61.5989 105.259 60.8695 104.984 59.6953C104.71 58.5212 105.439 57.3468 106.613 57.0724L119.31 54.1047C120.484 53.8303 121.658 54.5597 121.933 55.7338Z" fill="#928976"/>
<path fill-rule="evenodd" clip-rule="evenodd" d="M123.062 79.0043C122.845 80.1903 121.707 80.9757 120.521 80.7584L107.696 78.4085C106.51 78.1912 105.725 77.0536 105.942 75.8675C106.16 74.6814 107.297 73.8961 108.483 74.1134L121.308 76.4632C122.494 76.6805 123.28 77.8182 123.062 79.0043Z" fill="#928976"/>
<path fill-rule="evenodd" clip-rule="evenodd" d="M115.53 99.3984C114.885 100.418 113.537 100.722 112.518 100.078L101.495 93.1131C100.476 92.469 100.171 91.1205 100.816 90.1011C101.46 89.0818 102.808 88.7775 103.828 89.4216L114.85 96.3864C115.869 97.0305 116.174 98.379 115.53 99.3984Z" fill="#928976"/>
<path fill-rule="evenodd" clip-rule="evenodd" d="M98.9696 116.65C97.9638 117.315 96.6092 117.039 95.9441 116.033L88.752 105.158C88.0869 104.152 88.363 102.797 89.3688 102.132C90.3746 101.467 91.7291 101.743 92.3943 102.749L99.5864 113.625C100.252 114.63 99.9754 115.985 98.9696 116.65Z" fill="#928976"/>
<path fill-rule="evenodd" clip-rule="evenodd" d="M78.4008 125.134C77.2162 125.359 76.0734 124.581 75.8484 123.396L73.415 110.587C73.1899 109.402 73.9678 108.259 75.1525 108.034C76.3371 107.809 77.4799 108.587 77.7049 109.772L80.1383 122.581C80.3634 123.766 79.5855 124.908 78.4008 125.134Z" fill="#928976"/>
<path fill-rule="evenodd" clip-rule="evenodd" d="M56.539 125.014C55.3573 124.774 54.5941 123.622 54.8342 122.44L57.4305 109.663C57.6706 108.481 58.8232 107.718 60.0049 107.958C61.1865 108.198 61.9498 109.35 61.7097 110.532L59.1134 123.309C58.8733 124.491 57.7207 125.254 56.539 125.014Z" fill="#928976"/>
<path fill-rule="evenodd" clip-rule="evenodd" d="M36.3278 116.579C35.3216 115.914 35.0445 114.56 35.7089 113.554L42.8935 102.673C43.5579 101.667 44.9123 101.39 45.9185 102.054C46.9248 102.719 47.2019 104.073 46.5374 105.079L39.3529 115.96C38.6884 116.966 37.3341 117.243 36.3278 116.579Z" fill="#928976"/>
<path fill-rule="evenodd" clip-rule="evenodd" d="M21.7698 102.407C21.061 101.431 21.2771 100.066 22.2526 99.3571L32.8004 91.6924C33.7758 90.9836 35.1412 91.1997 35.8501 92.1752C36.5589 93.1506 36.3428 94.5161 35.3673 95.2249L24.8195 102.89C23.8441 103.598 22.4786 103.382 21.7698 102.407Z" fill="#928976"/>
<path fill-rule="evenodd" clip-rule="evenodd" d="M12.8848 82.1901C12.6038 81.0175 13.3266 79.8391 14.4992 79.5581L27.1787 76.5195C28.3514 76.2385 29.5298 76.9613 29.8108 78.1339C30.0918 79.3065 29.369 80.4849 28.1964 80.7659L15.5168 83.8045C14.3442 84.0855 13.1658 83.3627 12.8848 82.1901Z" fill="#928976"/>
<path fill-rule="evenodd" clip-rule="evenodd" d="M12.5712 59.1767C12.78 57.9891 13.912 57.1956 15.0996 57.4044L27.9413 59.6617C29.1289 59.8704 29.9224 61.0024 29.7136 62.19C29.5049 63.3776 28.3729 64.1712 27.1853 63.9624L14.3436 61.7051C13.156 61.4963 12.3625 60.3643 12.5712 59.1767Z" fill="#928976"/>
</svg>
